<svg width="16" height="16" viewBox="0 0 16 16" fill="none" xmlns="http://www.w3.org/2000/svg">
<path d="M4.5 2V2.5H2.5V13.5H13.5V2.5H11.5V2H10.5V2.5H5.5V2H4.5ZM3.5 3.5H4.5V4H5.5V3.5H10.5V4H11.5V3.5H12.5V4.5H3.5V3.5ZM3.5 5.5H12.5V12.5H3.5V5.5ZM6.5 6.5V7.5H7.5V6.5H6.5ZM8.5 6.5V7.5H9.5V6.5H8.5ZM10.5 6.5V7.5H11.5V6.5H10.5ZM4.5 8.5V9.5H5.5V8.5H4.5ZM6.5 8.5V9.5H7.5V8.5H6.5ZM8.5 8.5V9.5H9.5V8.5H8.5ZM10.5 8.5V9.5H11.5V8.5H10.5ZM4.5 10.5V11.5H5.5V10.5H4.5ZM6.5 10.5V11.5H7.5V10.5H6.5ZM8.5 10.5V11.5H9.5V10.5H8.5Z" fill="currentColor"/>
</svg>
